<svg width="16" height="16" viewBox="0 0 16 16" fill="none" xmlns="http://www.w3.org/2000/svg">
<path d="M15.545 6.55784C15.6384 7.09478 15.6849 7.63883 15.684 8.18384C15.684 10.6178 14.814 12.6758 13.3 14.0688H13.302C11.978 15.2918 10.158 15.9998 8 15.9998C5.87827 15.9998 3.84344 15.157 2.34315 13.6567C0.842855 12.1564 0 10.1216 0 7.99984C0 5.87811 0.842855 3.84327 2.34315 2.34298C3.84344 0.842692 5.87827 -0.000162867 8 -0.000162867C9.98573 -0.0222768 11.9032 0.723654 13.352 2.08184L11.068 4.36584C10.2422 3.57909 9.14044 3.14815 8 3.16584C5.913 3.16584 4.14 4.57384 3.508 6.46984C3.1735 7.46344 3.1735 8.53924 3.508 9.53284H3.511C4.146 11.4258 5.916 12.8338 8.003 12.8338C9.081 12.8338 10.007 12.5578 10.725 12.0698H10.722C11.139 11.7937 11.4957 11.4359 11.7705 11.0181C12.0453 10.6003 12.2326 10.1311 12.321 9.63884H8V6.55884L15.545 6.55784Z" fill="#4E4747"/>
</svg>
